<svg width="28" height="32" viewBox="0 0 28 32" fill="none" xmlns="http://www.w3.org/2000/svg">
<path fill-rule="evenodd" clip-rule="evenodd" d="M20.5714 6.85714L27.4286 6.85714V32H0V6.85714L6.85714 6.85714C6.85714 3.07005 9.92719 0 13.7143 0C17.5014 0 20.5714 3.07005 20.5714 6.85714ZM18.2857 9.14286H9.14286V10.2857H18.2857V9.14286ZM6.85714 9.14286V12.5714L9.14285 12.5714V10.2857H18.2857V12.5714L20.5714 12.5714V9.14286H25.1429V29.7143H2.28571V9.14286H6.85714ZM9.14286 6.85714C9.14286 4.33241 11.1896 2.28571 13.7143 2.28571C16.239 2.28571 18.2857 4.33241 18.2857 6.85714H9.14286Z" fill="white"/>
</svg>
