<svg width="37" height="32" viewBox="0 0 37 32" fill="none" xmlns="http://www.w3.org/2000/svg">
<path d="M33.4584 2.97082C31.5525 1.06487 29.0292 0.0231494 26.3362 0.0231494C23.6432 0.0231494 21.1122 1.07258 19.2062 2.97854L18.2108 3.97396L17.1999 2.96311C15.294 1.05715 12.7553 0 10.0623 0C7.37694 0 4.84595 1.04943 2.94772 2.94767C1.04176 4.85363 -0.00767417 7.38462 4.22529e-05 10.0776C4.22529e-05 12.7707 1.05719 15.2939 2.96315 17.1999L17.4546 31.6913C17.6552 31.892 17.9253 32 18.1876 32C18.45 32 18.7201 31.8997 18.9207 31.6991L33.443 17.2308C35.349 15.3248 36.3984 12.7938 36.3984 10.1008C36.4061 7.40776 35.3644 4.87678 33.4584 2.97082ZM31.9769 15.7569L18.1876 29.4922L4.42927 15.7338C2.91685 14.2214 2.08348 12.2151 2.08348 10.0776C2.08348 7.9402 2.90913 5.93393 4.42155 4.42923C5.92625 2.92452 7.93252 2.09115 10.0623 2.09115C12.1997 2.09115 14.2137 2.92452 15.7261 4.43694L17.47 6.18085C17.879 6.58982 18.5349 6.58982 18.9439 6.18085L20.6723 4.45237C22.1848 2.93996 24.1987 2.10658 26.3285 2.10658C28.4582 2.10658 30.4645 2.93996 31.9769 4.44466C33.4893 5.95708 34.315 7.96335 34.315 10.1008C34.3227 12.2382 33.4893 14.2445 31.9769 15.7569Z" fill="white"/>
</svg>
