<svg width="435" height="51" viewBox="0 0 435 51" fill="none" xmlns="http://www.w3.org/2000/svg">
<path d="M35.69 39.92V50H0.76V0.299997H35.06V10.38H12.24V20.04H31.84V29.35H12.24V39.92H35.69ZM38.974 24.73C38.974 21.6967 39.534 18.7333 40.654 15.84C41.774 12.9 43.4073 10.24 45.554 7.86C47.7007 5.48 50.314 3.59 53.394 2.19C56.474 0.743331 59.974 0.0199968 63.894 0.0199968C68.5607 0.0199968 72.5973 1.02333 76.004 3.03C79.4573 5.03667 82.024 7.65 83.704 10.87L74.884 17.03C74.1373 15.2567 73.134 13.88 71.874 12.9C70.6607 11.92 69.3073 11.2433 67.814 10.87C66.3673 10.45 64.9673 10.24 63.614 10.24C61.4207 10.24 59.5073 10.6833 57.874 11.57C56.2407 12.41 54.8873 13.5533 53.814 15C52.7407 16.4467 51.9473 18.0567 51.434 19.83C50.9207 21.6033 50.664 23.3767 50.664 25.15C50.664 27.11 50.9673 29 51.574 30.82C52.1807 32.64 53.044 34.25 54.164 35.65C55.3307 37.05 56.7307 38.17 58.364 39.01C59.9973 39.8033 61.794 40.2 63.754 40.2C65.154 40.2 66.5773 39.9667 68.024 39.5C69.4707 39.0333 70.8007 38.31 72.014 37.33C73.274 36.3033 74.2307 34.9733 74.884 33.34L84.264 38.87C83.284 41.2967 81.674 43.3733 79.434 45.1C77.194 46.8267 74.6507 48.1567 71.804 49.09C69.004 49.9767 66.2273 50.42 63.474 50.42C59.8807 50.42 56.5673 49.6967 53.534 48.25C50.5473 46.7567 47.9573 44.7967 45.764 42.37C43.6173 39.8967 41.9373 37.1433 40.724 34.11C39.5573 31.03 38.974 27.9033 38.974 24.73ZM111.124 50.42C107.39 50.42 104.007 49.72 100.974 48.32C97.9871 46.8733 95.3971 44.96 93.2038 42.58C91.0571 40.1533 89.4004 37.4467 88.2338 34.46C87.0671 31.4267 86.4838 28.3 86.4838 25.08C86.4838 21.7667 87.0904 18.6167 88.3038 15.63C89.5638 12.6433 91.2904 9.98333 93.4838 7.65C95.7238 5.27 98.3604 3.40333 101.394 2.05C104.427 0.696663 107.74 0.0199968 111.334 0.0199968C115.02 0.0199968 118.357 0.743331 121.344 2.19C124.377 3.59 126.967 5.50333 129.114 7.93C131.307 10.3567 132.987 13.0867 134.154 16.12C135.32 19.1067 135.904 22.1633 135.904 25.29C135.904 28.6033 135.297 31.7533 134.084 34.74C132.87 37.7267 131.144 40.41 128.904 42.79C126.664 45.1233 124.027 46.99 120.994 48.39C118.007 49.7433 114.717 50.42 111.124 50.42ZM98.1738 25.22C98.1738 27.1333 98.4538 29 99.0138 30.82C99.5738 32.5933 100.39 34.18 101.464 35.58C102.584 36.98 103.96 38.1 105.594 38.94C107.227 39.78 109.094 40.2 111.194 40.2C113.387 40.2 115.3 39.78 116.934 38.94C118.567 38.0533 119.92 36.8867 120.994 35.44C122.067 33.9933 122.86 32.3833 123.374 30.61C123.934 28.79 124.214 26.9467 124.214 25.08C124.214 23.1667 123.934 21.3233 123.374 19.55C122.814 17.7767 121.974 16.19 120.854 14.79C119.734 13.3433 118.357 12.2233 116.724 11.43C115.09 10.6367 113.247 10.24 111.194 10.24C109 10.24 107.087 10.66 105.454 11.5C103.867 12.34 102.514 13.4833 101.394 14.93C100.32 16.33 99.5038 17.94 98.9438 19.76C98.4304 21.5333 98.1738 23.3533 98.1738 25.22ZM181.737 50V20.39L171.027 41.95H164.727L154.017 20.39V50H142.537V0.299997H154.997L167.877 26.27L180.827 0.299997H193.217V50H181.737ZM241.962 50V20.39L231.252 41.95H224.952L214.242 20.39V50H202.762V0.299997H215.222L228.102 26.27L241.052 0.299997H253.442V50H241.962ZM297.917 39.92V50H262.987V0.299997H297.287V10.38H274.467V20.04H294.067V29.35H274.467V39.92H297.917ZM304.891 50V0.299997H327.291C329.624 0.299997 331.771 0.789998 333.731 1.77C335.738 2.70333 337.464 3.98667 338.911 5.62C340.358 7.20667 341.478 9.00333 342.271 11.01C343.111 13.0167 343.531 15.0467 343.531 17.1C343.531 19.1533 343.204 21.1133 342.551 22.98C341.898 24.8 340.964 26.4567 339.751 27.95C338.538 29.3967 337.091 30.5867 335.411 31.52L346.331 50H333.661L324.141 33.97H316.371V50H304.891ZM316.371 23.96H326.871C327.804 23.96 328.621 23.68 329.321 23.12C330.068 22.5133 330.674 21.6967 331.141 20.67C331.608 19.6433 331.841 18.4533 331.841 17.1C331.841 15.7467 331.561 14.58 331.001 13.6C330.488 12.5733 329.834 11.78 329.041 11.22C328.248 10.66 327.408 10.38 326.521 10.38H316.371V23.96ZM348.437 24.73C348.437 21.6967 348.997 18.7333 350.117 15.84C351.237 12.9 352.87 10.24 355.017 7.86C357.164 5.48 359.777 3.59 362.857 2.19C365.937 0.743331 369.437 0.0199968 373.357 0.0199968C378.024 0.0199968 382.06 1.02333 385.467 3.03C388.92 5.03667 391.487 7.65 393.167 10.87L384.347 17.03C383.6 15.2567 382.597 13.88 381.337 12.9C380.124 11.92 378.77 11.2433 377.277 10.87C375.83 10.45 374.43 10.24 373.077 10.24C370.884 10.24 368.97 10.6833 367.337 11.57C365.704 12.41 364.35 13.5533 363.277 15C362.204 16.4467 361.41 18.0567 360.897 19.83C360.384 21.6033 360.127 23.3767 360.127 25.15C360.127 27.11 360.43 29 361.037 30.82C361.644 32.64 362.507 34.25 363.627 35.65C364.794 37.05 366.194 38.17 367.827 39.01C369.46 39.8033 371.257 40.2 373.217 40.2C374.617 40.2 376.04 39.9667 377.487 39.5C378.934 39.0333 380.264 38.31 381.477 37.33C382.737 36.3033 383.694 34.9733 384.347 33.34L393.727 38.87C392.747 41.2967 391.137 43.3733 388.897 45.1C386.657 46.8267 384.114 48.1567 381.267 49.09C378.467 49.9767 375.69 50.42 372.937 50.42C369.344 50.42 366.03 49.6967 362.997 48.25C360.01 46.7567 357.42 44.7967 355.227 42.37C353.08 39.8967 351.4 37.1433 350.187 34.11C349.02 31.03 348.437 27.9033 348.437 24.73ZM434.43 39.92V50H399.5V0.299997H433.8V10.38H410.98V20.04H430.58V29.35H410.98V39.92H434.43Z" fill="black"/>
</svg>
